# xmcd
#
# Track frame offsets:
# 150
# 26759
# 48744
# 69171
# 91623
# 112233
# 135762
# 160221
# 179971
# 203076
# 223893
# 243039
# 262251
# 285002
#
# Disc length: 4121 seconds
#
#
# Revision: 0
# Processed by: cddbd v1.4PL0 Copyright (c) Steve Scherf et al.
# Submitted via: FreeRIP 2.00 
#
DISCID=c910170e
DTITLE=Maná - Grandes Exitos
DYEAR=1999
DGENRE=Latin
TTITLE0=En El Muelle De San Blas
TTITLE1=Vivir Sin Aire
TTITLE2=Oye Mi Amor
TTITLE3=Te Lloré Un Río
TTITLE4=Cómo Te Deseo
TTITLE5=Clavado En Un Bar
TTITLE6=No Ha Parado De Llover
TTITLE7=Déjame Entrar
TTITLE8=Cuando Los Angeles Lloran
TTITLE9=De Pies A Cabeza
TTITLE10=Perdido En Un Barco
TTITLE11=Rayando El Sol
TTITLE12=Hechicera
TTITLE13=Un Lobo Por Tu Amor
EXTD=capitals
EXTT0=
EXTT1=
EXTT2=
EXTT3=
EXTT4=
EXTT5=
EXTT6=
EXTT7=
EXTT8=
EXTT9=
EXTT10=
EXTT11=
EXTT12=
EXTT13=
PLAYORDER=
